<svg xmlns="http://www.w3.org/2000/svg" xmlns:xlink="http://www.w3.org/1999/xlink" width="200" zoomAndPan="magnify" viewBox="0 0 150 56.249996" height="75" preserveAspectRatio="xMidYMid meet" version="1.0"><defs><clipPath id="id1"><path d="M 0.988281 1 L 148.273438 1 L 148.273438 55 L 0.988281 55 Z M 0.988281 1 " clip-rule="nonzero"/></clipPath></defs><g clip-path="url(#id1)"><path fill="#000000" d="M 28.375 25.917969 C 27.878906 23.242188 24.378906 21.769531 20.90625 23.660156 L 21.804688 26.714844 L 23.214844 31.238281 L 23.851562 33.296875 C 26.449219 31.625 29.070312 29.621094 28.375 25.914062 Z M 24.925781 30.03125 C 24.53125 28.726562 24.128906 27.425781 23.71875 26.128906 L 23.355469 24.882812 C 24.054688 24.730469 24.726562 24.800781 25.382812 25.085938 C 25.707031 25.242188 26.277344 25.601562 26.398438 26.285156 C 26.6875 27.820312 26.171875 28.917969 24.925781 30.019531 Z M 80.820312 21.671875 C 80.582031 21.449219 80.324219 21.257812 80.042969 21.089844 C 79.761719 20.921875 79.46875 20.785156 79.160156 20.679688 C 78.851562 20.570312 78.535156 20.496094 78.214844 20.453125 C 77.890625 20.414062 77.566406 20.40625 77.242188 20.429688 C 76.914062 20.453125 76.597656 20.511719 76.28125 20.601562 C 75.96875 20.691406 75.667969 20.816406 75.382812 20.96875 C 75.09375 21.121094 74.824219 21.300781 74.570312 21.507812 C 74.320312 21.714844 74.09375 21.949219 73.890625 22.203125 C 73.6875 22.457031 73.511719 22.730469 73.363281 23.023438 C 73.21875 23.3125 73.101562 23.617188 73.015625 23.929688 C 72.933594 24.246094 72.878906 24.566406 72.863281 24.890625 C 72.84375 25.21875 72.855469 25.539062 72.90625 25.863281 C 72.953125 26.1875 73.035156 26.5 73.144531 26.804688 C 73.257812 27.113281 73.402344 27.402344 73.574219 27.679688 C 73.746094 27.957031 73.945312 28.214844 74.171875 28.449219 C 74.394531 28.683594 74.644531 28.894531 74.914062 29.078125 L 81.160156 22.003906 C 81.050781 21.890625 80.9375 21.777344 80.820312 21.671875 Z M 74.925781 26.65625 C 74.773438 26.378906 74.667969 26.085938 74.605469 25.78125 C 74.542969 25.472656 74.53125 25.160156 74.566406 24.847656 C 74.597656 24.535156 74.679688 24.234375 74.804688 23.949219 C 74.929688 23.660156 75.097656 23.398438 75.304688 23.160156 C 75.511719 22.925781 75.75 22.722656 76.019531 22.558594 C 76.285156 22.398438 76.574219 22.277344 76.878906 22.203125 C 77.183594 22.125 77.492188 22.097656 77.804688 22.117188 C 78.121094 22.136719 78.421875 22.203125 78.71875 22.316406 Z M 121.265625 28.035156 C 121.320312 28.246094 121.347656 28.460938 121.34375 28.679688 C 121.28125 30 120.035156 31.023438 118.558594 30.949219 C 117.078125 30.902344 115.917969 29.777344 115.980469 28.464844 C 116.023438 27.21875 117.128906 26.242188 118.492188 26.183594 C 118.222656 26.121094 117.953125 26.085938 117.679688 26.078125 C 115.195312 25.972656 113.167969 27.734375 113.089844 29.921875 C 112.984375 32.253906 114.863281 34.167969 117.300781 34.269531 C 119.792969 34.363281 121.8125 32.601562 121.902344 30.277344 C 121.929688 29.460938 121.71875 28.714844 121.269531 28.035156 M 46.0625 30.710938 C 46.0625 32.039062 44.855469 33.105469 43.375 33.105469 C 41.890625 33.105469 40.6875 32.042969 40.6875 30.710938 C 40.6875 29.472656 41.75 28.453125 43.105469 28.332031 C 42.835938 28.28125 42.566406 28.257812 42.292969 28.257812 C 39.816406 28.257812 37.859375 30.097656 37.859375 32.28125 C 37.859375 34.628906 39.820312 36.457031 42.25 36.457031 C 44.738281 36.457031 46.6875 34.628906 46.6875 32.28125 C 46.683594 31.46875 46.441406 30.738281 45.957031 30.085938 C 46.019531 30.269531 46.0625 30.484375 46.0625 30.710938 M 136.691406 17.300781 L 135.589844 21.835938 L 134.570312 16.804688 L 120.957031 13.816406 L 121.054688 21.382812 L 123.105469 21.84375 L 122.957031 23.210938 L 122.898438 23.167969 C 120.355469 21.832031 117.207031 21.695312 114.242188 22.8125 C 113.242188 23.183594 112.316406 23.691406 111.480469 24.296875 L 109.425781 11.335938 L 100.375 11.335938 L 100.128906 12.835938 L 90.597656 12.835938 L 89.511719 19.492188 L 88.714844 18.519531 C 88.148438 17.824219 87.511719 17.199219 86.804688 16.644531 C 86.101562 16.089844 85.34375 15.621094 84.535156 15.230469 C 83.726562 14.84375 82.886719 14.550781 82.011719 14.347656 C 81.136719 14.148438 80.253906 14.042969 79.355469 14.039062 L 87.445312 9.6875 L 81.808594 1.277344 L 71.605469 13.019531 L 73.367188 15.167969 C 71.824219 15.789062 70.445312 16.667969 69.230469 17.800781 L 60.492188 10.042969 L 57.441406 15.890625 L 57.558594 10.269531 L 43.894531 14.640625 L 44.246094 21.980469 L 46.570312 21.378906 L 46.914062 25.089844 C 44.257812 23.90625 41.0625 23.925781 38.101562 25.175781 C 37.234375 25.554688 36.417969 26.023438 35.65625 26.582031 C 36.210938 24.367188 36.050781 22.203125 35.183594 20.089844 C 34.671875 18.917969 33.984375 17.863281 33.128906 16.917969 C 32.269531 15.972656 31.28125 15.1875 30.167969 14.566406 C 28.550781 13.507812 26.78125 12.878906 24.859375 12.675781 C 20.132812 11.847656 14.453125 12.695312 8.867188 15.082031 C 6.886719 15.910156 4.988281 16.898438 3.171875 18.046875 L 0.988281 19.433594 L 2.304688 21.660156 L 6.398438 28.574219 C 6.398438 28.574219 7.652344 30.699219 7.65625 30.695312 L 9.875 29.605469 L 10.179688 29.464844 L 20.355469 52.171875 L 21.335938 54.351562 L 23.609375 53.628906 L 29.105469 51.859375 L 31.523438 51.09375 L 30.886719 48.636719 L 27.964844 37.414062 C 28.804688 36.792969 29.585938 36.128906 30.316406 35.445312 C 30.148438 36.789062 30.234375 38.144531 30.605469 39.445312 C 31.363281 42.164062 33.15625 44.3125 35.625 45.496094 C 38.292969 46.785156 41.546875 46.785156 44.558594 45.507812 C 46.074219 44.871094 47.425781 43.929688 48.554688 42.8125 L 48.972656 47.28125 L 58.605469 45.863281 L 58.59375 37.230469 L 78.734375 47.171875 L 78.734375 37.535156 C 81.683594 37.242188 84.441406 36.351562 87.003906 34.859375 L 86.15625 40.035156 L 97.015625 41.746094 L 97.613281 37.835938 L 100.441406 43.078125 L 102.179688 39.734375 L 102.816406 45.226562 L 115.121094 47.386719 L 114.472656 43.25 C 116.71875 43.488281 118.839844 43.085938 120.839844 42.035156 L 120.351562 46.441406 L 128.550781 47.601562 L 128.609375 50.957031 L 137.140625 53.644531 L 148.273438 20.113281 Z M 88.585938 22.273438 L 89.148438 21.679688 L 88.460938 25.914062 L 86.6875 24.304688 Z M 81.363281 5.011719 L 84.351562 9.066406 L 75.820312 13.296875 L 75.226562 12.398438 Z M 24.890625 36.253906 L 28.296875 49.3125 L 22.785156 51.074219 L 11.488281 25.839844 C 10.875 26.164062 9.746094 26.699219 8.695312 27.207031 L 4.609375 20.296875 C 6.238281 19.261719 8.019531 18.339844 9.917969 17.535156 C 15.242188 15.269531 20.332031 14.589844 24.398438 15.3125 C 25.828125 15.480469 27.351562 15.898438 28.695312 16.789062 C 30.523438 17.816406 31.917969 19.277344 32.726562 21.152344 C 34.691406 25.691406 31.40625 32.238281 24.894531 36.253906 Z M 50.210938 33.933594 C 50.148438 35.886719 49.433594 37.824219 48.242188 39.476562 C 47.054688 41.140625 45.519531 42.375 43.644531 43.1875 C 38.863281 45.214844 34.089844 43.1875 32.820312 38.648438 C 31.574219 34.265625 34.453125 29.042969 39.078125 27.046875 C 42.042969 25.808594 45.007812 26.097656 47.128906 27.539062 C 48.4375 28.433594 49.445312 29.773438 49.910156 31.449219 C 50.140625 32.261719 50.238281 33.09375 50.210938 33.941406 Z M 76.207031 43.164062 L 56.238281 33.167969 L 56.273438 43.640625 L 51.101562 44.347656 L 50.738281 40.035156 C 52.335938 37.296875 52.917969 34.070312 52.089844 31.109375 C 51.644531 29.5 50.824219 28.109375 49.632812 26.9375 L 48.890625 18.144531 L 46.578125 18.746094 L 46.472656 16.523438 L 54.769531 14.042969 L 55.28125 22.609375 L 61.398438 14.019531 L 67.375 19.707031 L 59.019531 28.519531 L 66.871094 31.632812 C 67.746094 33.289062 69.082031 34.699219 70.761719 35.742188 C 72.382812 36.746094 74.25 37.339844 76.21875 37.53125 L 76.21875 43.164062 Z M 65.835938 28.679688 L 63.050781 27.613281 L 65.644531 25.097656 C 65.527344 26.25 65.585938 27.460938 65.828125 28.679688 Z M 87.574219 31.300781 C 85.65625 32.890625 83.460938 33.921875 80.582031 34.613281 C 79.972656 34.761719 79.355469 34.867188 78.730469 34.929688 C 74.144531 35.375 70.296875 33.269531 68.835938 29.859375 C 68.65625 29.445312 68.515625 29.015625 68.414062 28.574219 C 67.738281 25.703125 68.316406 23.132812 69.734375 21.121094 C 70.148438 20.527344 70.628906 19.992188 71.175781 19.519531 C 72.625 18.257812 74.285156 17.410156 76.15625 16.984375 C 80.527344 15.933594 84.375 17.265625 86.730469 20.15625 L 78.417969 29.019531 C 79.132812 29.078125 79.839844 29.011719 80.535156 28.816406 C 82.515625 28.332031 83.625 27.28125 84.601562 26.140625 L 87.929688 29.121094 L 88.933594 30.042969 C 88.503906 30.484375 88.046875 30.90625 87.574219 31.300781 Z M 105.230469 43.125 L 103.425781 31.136719 L 100.859375 37.75 L 97.023438 29.476562 L 96.980469 29.476562 L 95.472656 39.050781 L 89.082031 37.945312 L 89.976562 32.609375 C 90.21875 32.378906 90.457031 32.144531 90.691406 31.910156 L 92.765625 29.773438 L 90.746094 27.96875 L 92.894531 15.246094 L 99.335938 15.246094 L 100.945312 24.058594 L 102.75 13.855469 L 107.363281 13.855469 L 109.277344 26.285156 C 106.847656 29.054688 105.660156 32.792969 106.480469 36.199219 C 106.640625 36.898438 106.878906 37.574219 107.195312 38.21875 C 107.515625 38.863281 107.90625 39.460938 108.367188 40.015625 C 108.828125 40.566406 109.347656 41.058594 109.925781 41.484375 C 110.507812 41.914062 111.125 42.269531 111.789062 42.550781 L 112.035156 44.164062 Z M 121.152344 39.21875 C 120.4375 39.726562 119.664062 40.136719 118.839844 40.445312 C 117.304688 41.058594 115.722656 41.21875 114.097656 40.917969 C 113.097656 40.726562 112.179688 40.339844 111.347656 39.75 C 109.964844 38.742188 109.085938 37.402344 108.707031 35.730469 C 108.21875 33.667969 108.664062 31.460938 109.777344 29.519531 C 110.335938 28.574219 111.046875 27.691406 111.886719 26.925781 C 112.820312 26.085938 113.914062 25.390625 115.121094 24.929688 C 117.9375 23.875 120.71875 24.242188 122.667969 25.644531 C 124.019531 26.613281 124.882812 27.90625 125.257812 29.527344 C 125.859375 32.019531 125.148438 34.671875 123.578125 36.8125 C 122.898438 37.742188 122.089844 38.546875 121.152344 39.21875 Z M 135.53125 50.515625 L 130.808594 49.109375 L 130.402344 31.695312 L 128.019531 45.132812 L 122.867188 44.304688 L 123.246094 40.4375 C 126.605469 37.589844 128.390625 33.105469 127.414062 29.046875 C 126.996094 27.253906 126.109375 25.730469 124.75 24.484375 L 125.1875 19.921875 L 123.242188 19.402344 L 123.363281 16.972656 L 132.25 18.75 L 135.238281 32.914062 L 138.300781 20.21875 L 145.050781 21.714844 Z M 135.53125 50.515625 " fill-opacity="1" fill-rule="nonzero"/></g></svg>