<svg xmlns="http://www.w3.org/2000/svg" xmlns:xlink="http://www.w3.org/1999/xlink" width="200" zoomAndPan="magnify" viewBox="0 0 150 149.999998" height="200" preserveAspectRatio="xMidYMid meet" version="1.0"><path fill="#000000" d="M 27.894531 26.496094 C 27.386719 23.769531 23.824219 22.269531 20.289062 24.195312 L 21.199219 27.308594 L 22.636719 31.914062 L 23.289062 34.007812 C 25.929688 32.308594 28.601562 30.261719 27.894531 26.488281 Z M 24.382812 30.683594 C 23.980469 29.355469 23.566406 28.03125 23.148438 26.707031 L 22.78125 25.4375 C 23.492188 25.285156 24.179688 25.355469 24.84375 25.644531 C 25.175781 25.808594 25.757812 26.167969 25.882812 26.871094 C 26.175781 28.433594 25.648438 29.550781 24.382812 30.667969 Z M 81.304688 22.167969 C 81.0625 21.945312 80.796875 21.746094 80.511719 21.574219 C 80.226562 21.40625 79.929688 21.265625 79.613281 21.15625 C 79.300781 21.046875 78.980469 20.972656 78.648438 20.929688 C 78.320312 20.886719 77.988281 20.878906 77.660156 20.902344 C 77.328125 20.929688 77.003906 20.988281 76.683594 21.082031 C 76.363281 21.171875 76.058594 21.296875 75.765625 21.453125 C 75.472656 21.605469 75.195312 21.789062 74.941406 22.003906 C 74.683594 22.214844 74.453125 22.449219 74.246094 22.710938 C 74.039062 22.96875 73.859375 23.246094 73.710938 23.542969 C 73.5625 23.839844 73.445312 24.148438 73.355469 24.46875 C 73.269531 24.789062 73.21875 25.117188 73.199219 25.449219 C 73.179688 25.78125 73.195312 26.109375 73.242188 26.4375 C 73.292969 26.765625 73.375 27.085938 73.488281 27.398438 C 73.601562 27.710938 73.75 28.007812 73.925781 28.289062 C 74.101562 28.570312 74.304688 28.832031 74.53125 29.070312 C 74.761719 29.3125 75.015625 29.523438 75.289062 29.714844 L 81.648438 22.507812 C 81.539062 22.390625 81.425781 22.277344 81.304688 22.167969 Z M 75.300781 27.246094 C 75.144531 26.964844 75.039062 26.667969 74.976562 26.351562 C 74.914062 26.039062 74.898438 25.722656 74.933594 25.402344 C 74.96875 25.085938 75.050781 24.78125 75.179688 24.488281 C 75.308594 24.195312 75.476562 23.925781 75.6875 23.6875 C 75.898438 23.445312 76.140625 23.242188 76.414062 23.074219 C 76.6875 22.90625 76.980469 22.785156 77.289062 22.707031 C 77.601562 22.632812 77.914062 22.601562 78.234375 22.625 C 78.554688 22.644531 78.863281 22.710938 79.164062 22.824219 Z M 122.492188 28.652344 C 122.550781 28.867188 122.578125 29.085938 122.574219 29.308594 C 122.511719 30.652344 121.242188 31.695312 119.738281 31.621094 C 118.230469 31.570312 117.050781 30.425781 117.113281 29.089844 C 117.15625 27.820312 118.28125 26.824219 119.667969 26.761719 C 119.398438 26.703125 119.121094 26.667969 118.84375 26.65625 C 116.3125 26.550781 114.25 28.34375 114.167969 30.570312 C 114.0625 32.945312 115.976562 34.894531 118.457031 35 C 120.992188 35.09375 123.050781 33.300781 123.144531 30.933594 C 123.171875 30.101562 122.957031 29.34375 122.5 28.652344 M 45.90625 31.375 C 45.90625 32.726562 44.675781 33.8125 43.167969 33.8125 C 41.65625 33.8125 40.429688 32.730469 40.429688 31.375 C 40.429688 30.113281 41.511719 29.074219 42.894531 28.949219 C 42.621094 28.902344 42.347656 28.875 42.070312 28.875 C 39.542969 28.875 37.550781 30.75 37.550781 32.976562 C 37.550781 35.363281 39.550781 37.226562 42.023438 37.226562 C 44.554688 37.226562 46.542969 35.363281 46.542969 32.976562 C 46.539062 32.148438 46.292969 31.402344 45.800781 30.738281 C 45.863281 30.925781 45.90625 31.144531 45.90625 31.375 M 138.207031 17.71875 L 137.082031 22.339844 L 136.042969 17.214844 L 122.179688 14.167969 L 122.28125 21.875 L 124.367188 22.34375 L 124.21875 23.738281 L 124.15625 23.695312 C 121.570312 22.332031 118.363281 22.195312 115.34375 23.332031 C 114.324219 23.707031 113.382812 24.226562 112.53125 24.84375 L 110.4375 11.644531 L 101.21875 11.644531 L 100.96875 13.167969 L 91.261719 13.167969 L 90.15625 19.949219 L 89.34375 18.957031 C 88.765625 18.25 88.117188 17.613281 87.402344 17.050781 C 86.683594 16.484375 85.910156 16.003906 85.085938 15.609375 C 84.265625 15.214844 83.40625 14.917969 82.515625 14.710938 C 81.628906 14.507812 80.726562 14.402344 79.8125 14.394531 L 88.050781 9.964844 L 82.3125 1.402344 L 71.917969 13.355469 L 73.710938 15.542969 C 72.140625 16.175781 70.738281 17.070312 69.5 18.226562 L 60.601562 10.324219 L 57.492188 16.28125 L 57.613281 10.558594 L 43.699219 15.007812 L 44.054688 22.480469 L 46.425781 21.871094 L 46.773438 25.652344 C 44.070312 24.445312 40.8125 24.464844 37.800781 25.738281 C 36.917969 26.125 36.085938 26.601562 35.304688 27.167969 C 35.871094 24.914062 35.710938 22.707031 34.824219 20.558594 C 34.304688 19.367188 33.605469 18.289062 32.734375 17.324219 C 31.859375 16.363281 30.855469 15.566406 29.71875 14.933594 C 28.070312 13.855469 26.269531 13.214844 24.3125 13.007812 C 19.5 12.164062 13.710938 13.027344 8.023438 15.457031 C 6.007812 16.304688 4.074219 17.308594 2.226562 18.476562 L 0 19.886719 L 1.34375 22.15625 L 5.511719 29.199219 C 5.511719 29.199219 6.789062 31.363281 6.792969 31.355469 L 9.050781 30.25 L 9.363281 30.105469 L 19.726562 53.230469 L 20.726562 55.449219 L 23.039062 54.714844 L 28.636719 52.914062 L 31.101562 52.132812 L 30.449219 49.632812 L 27.476562 38.199219 C 28.332031 37.570312 29.125 36.894531 29.867188 36.195312 C 29.699219 37.5625 29.789062 38.945312 30.164062 40.269531 C 30.9375 43.039062 32.761719 45.226562 35.273438 46.433594 C 37.992188 47.746094 41.304688 47.746094 44.375 46.445312 C 45.917969 45.792969 47.292969 44.839844 48.445312 43.699219 L 48.867188 48.25 L 58.679688 46.808594 L 58.667969 38.011719 L 79.179688 48.136719 L 79.179688 38.324219 C 82.183594 38.027344 84.992188 37.117188 87.601562 35.601562 L 86.738281 40.871094 L 97.800781 42.613281 L 98.40625 38.632812 L 101.289062 43.96875 L 103.054688 40.5625 L 103.707031 46.15625 L 116.238281 48.355469 L 115.574219 44.144531 C 117.863281 44.390625 120.023438 43.976562 122.0625 42.90625 L 121.5625 47.394531 L 129.914062 48.574219 L 129.976562 51.996094 L 138.664062 54.730469 L 150 20.582031 Z M 89.210938 22.78125 L 89.789062 22.175781 L 89.085938 26.488281 L 87.28125 24.851562 Z M 81.855469 5.199219 L 84.898438 9.332031 L 76.210938 13.636719 L 75.605469 12.726562 Z M 24.34375 37.019531 L 27.8125 50.320312 L 22.199219 52.113281 L 10.695312 26.414062 C 10.070312 26.746094 8.917969 27.289062 7.851562 27.808594 L 3.6875 20.769531 C 5.351562 19.714844 7.164062 18.777344 9.09375 17.957031 C 14.519531 15.652344 19.699219 14.957031 23.84375 15.695312 C 25.300781 15.863281 26.851562 16.289062 28.21875 17.195312 C 30.082031 18.246094 31.5 19.730469 32.324219 21.636719 C 34.324219 26.261719 30.980469 32.933594 24.351562 37.019531 Z M 50.132812 34.65625 C 50.070312 36.644531 49.335938 38.621094 48.125 40.300781 C 46.914062 41.996094 45.355469 43.253906 43.445312 44.082031 C 38.574219 46.144531 33.710938 44.082031 32.417969 39.457031 C 31.148438 34.996094 34.082031 29.675781 38.792969 27.644531 C 41.8125 26.382812 44.832031 26.675781 46.992188 28.144531 C 48.324219 29.058594 49.351562 30.417969 49.824219 32.125 C 50.058594 32.957031 50.160156 33.800781 50.132812 34.664062 Z M 76.605469 44.058594 L 56.269531 33.875 L 56.304688 44.542969 L 51.039062 45.261719 L 50.667969 40.871094 C 52.292969 38.082031 52.886719 34.792969 52.042969 31.78125 C 51.589844 30.140625 50.757812 28.726562 49.542969 27.53125 L 48.789062 18.574219 L 46.429688 19.1875 L 46.324219 16.925781 L 54.773438 14.402344 L 55.292969 23.125 L 61.523438 14.375 L 67.613281 20.167969 L 59.101562 29.144531 L 67.101562 32.3125 C 67.988281 34 69.351562 35.4375 71.0625 36.5 C 72.710938 37.519531 74.613281 38.125 76.617188 38.320312 L 76.617188 44.058594 Z M 66.042969 29.308594 L 63.207031 28.21875 L 65.851562 25.65625 C 65.730469 26.832031 65.789062 28.0625 66.039062 29.308594 Z M 88.179688 31.976562 C 86.230469 33.59375 83.992188 34.644531 81.0625 35.351562 C 80.441406 35.5 79.8125 35.605469 79.175781 35.667969 C 74.507812 36.125 70.585938 33.980469 69.101562 30.507812 C 68.914062 30.085938 68.773438 29.648438 68.667969 29.199219 C 67.980469 26.277344 68.570312 23.65625 70.011719 21.605469 C 70.4375 21.003906 70.925781 20.460938 71.480469 19.976562 C 72.957031 18.691406 74.648438 17.828125 76.554688 17.394531 C 81.007812 16.324219 84.925781 17.683594 87.324219 20.625 L 78.855469 29.652344 C 79.585938 29.710938 80.304688 29.640625 81.011719 29.445312 C 83.03125 28.949219 84.164062 27.882812 85.15625 26.71875 L 88.542969 29.757812 L 89.570312 30.695312 C 89.128906 31.144531 88.664062 31.570312 88.179688 31.976562 Z M 106.164062 44.019531 L 104.324219 31.808594 L 101.710938 38.542969 L 97.804688 30.121094 L 97.761719 30.121094 L 96.226562 39.871094 L 89.71875 38.746094 L 90.632812 33.308594 C 90.878906 33.074219 91.121094 32.835938 91.355469 32.59375 L 93.46875 30.417969 L 91.414062 28.582031 L 93.601562 15.625 L 100.164062 15.625 L 101.800781 24.601562 L 103.636719 14.207031 L 108.335938 14.207031 L 110.289062 26.871094 C 107.8125 29.6875 106.601562 33.496094 107.4375 36.964844 C 107.597656 37.679688 107.84375 38.363281 108.167969 39.019531 C 108.492188 39.679688 108.890625 40.289062 109.359375 40.851562 C 109.828125 41.414062 110.359375 41.910156 110.949219 42.347656 C 111.535156 42.785156 112.167969 43.144531 112.84375 43.433594 L 113.09375 45.074219 Z M 122.382812 40.039062 C 121.652344 40.558594 120.863281 40.972656 120.023438 41.289062 C 118.460938 41.914062 116.851562 42.074219 115.195312 41.769531 C 114.175781 41.574219 113.242188 41.179688 112.394531 40.582031 C 110.988281 39.550781 110.089844 38.1875 109.707031 36.488281 C 109.207031 34.386719 109.664062 32.136719 110.792969 30.164062 C 111.363281 29.199219 112.085938 28.300781 112.945312 27.519531 C 113.894531 26.664062 115.007812 25.957031 116.238281 25.488281 C 119.105469 24.414062 121.9375 24.789062 123.925781 26.214844 C 125.300781 27.199219 126.179688 28.519531 126.5625 30.167969 C 127.175781 32.707031 126.449219 35.40625 124.851562 37.589844 C 124.160156 38.539062 123.335938 39.355469 122.382812 40.039062 Z M 137.023438 51.542969 L 132.210938 50.113281 L 131.800781 32.375 L 129.375 46.0625 L 124.125 45.21875 L 124.511719 41.28125 C 127.929688 38.382812 129.75 33.8125 128.757812 29.683594 C 128.332031 27.851562 127.425781 26.300781 126.042969 25.03125 L 126.488281 20.386719 L 124.507812 19.855469 L 124.632812 17.382812 L 133.679688 19.195312 L 136.726562 33.621094 L 139.84375 20.6875 L 146.71875 22.214844 Z M 137.023438 51.542969 " fill-opacity="1" fill-rule="nonzero"/></svg>